<svg xmlns="http://www.w3.org/2000/svg" viewBox="0 0 92 92">
<circle cx="46" cy="46" r="46" fill="#FEEBCB"/>
<circle cx="46" cy="46" r="44.35" fill="none" stroke="#2D5B14" stroke-width="1"/>
<g transform="translate(-251.8 -205.7)" fill="#2D5B14">
<path fill-rule="nonzero" d="M 333.242188 247.664062 L 333.242188 252.453125 L 318.875 252.453125 L 318.875 254.046875 L 325.261719 254.046875 L 325.261719 258.835938 L 318.875 258.835938 L 318.875 260.382812 L 313.292969 265.980469 L 318.90625 271.664062 L 320.054688 270.539062 L 315.527344 265.988281 L 316.636719 264.882812 L 325.675781 273.921875 L 322.289062 277.308594 L 312.132812 267.152344 L 311.003906 268.28125 L 315.519531 272.792969 L 312.132812 276.179688 L 307.617188 271.664062 L 306.523438 272.757812 L 298.617188 272.769531 L 298.566406 280.757812 L 300.179688 280.773438 L 300.195312 274.355469 L 301.757812 274.355469 L 301.757812 287.140625 L 296.96875 287.140625 L 296.96875 272.777344 L 295.375 272.777344 L 295.375 279.160156 L 290.585938 279.160156 L 290.585938 272.777344 L 289.039062 272.777344 L 283.441406 267.191406 L 277.753906 272.804688 L 278.882812 273.953125 L 283.433594 269.425781 L 284.539062 270.535156 L 275.5 279.574219 L 272.113281 276.191406 L 282.269531 266.03125 L 281.140625 264.902344 L 276.625 269.417969 L 273.242188 266.03125 L 277.753906 261.515625 L 276.664062 260.425781 L 276.652344 252.515625 L 268.664062 252.464844 L 268.648438 254.078125 L 275.066406 254.09375 L 275.066406 255.65625 L 262.277344 255.65625 L 262.277344 250.871094 L 276.648438 250.871094 L 276.648438 249.273438 L 270.261719 249.273438 L 270.261719 244.484375 L 276.648438 244.484375 L 276.648438 242.9375 L 282.230469 237.339844 L 276.617188 231.65625 L 275.464844 232.78125 L 279.996094 237.332031 L 278.886719 238.4375 L 269.84375 229.398438 L 273.230469 226.011719 L 283.390625 236.171875 L 284.519531 235.039062 L 280.003906 230.527344 L 283.390625 227.140625 L 287.90625 231.65625 L 288.996094 230.5625 L 296.90625 230.550781 L 296.957031 222.5625 L 295.34375 222.546875 L 295.328125 228.964844 L 293.765625 228.964844 L 293.765625 216.179688 L 298.554688 216.179688 L 298.554688 230.546875 L 300.148438 230.546875 L 300.148438 224.160156 L 304.9375 224.160156 L 304.9375 230.546875 L 306.484375 230.546875 L 312.082031 236.128906 L 317.765625 230.515625 L 316.640625 229.367188 L 312.089844 233.894531 L 310.984375 232.785156 L 320.023438 223.746094 L 323.410156 227.128906 L 313.25 237.289062 L 314.378906 238.417969 L 318.894531 233.902344 L 322.28125 237.289062 L 317.765625 241.804688 L 318.859375 242.898438 L 318.867188 250.804688 L 326.855469 250.855469 L 326.875 249.246094 L 320.453125 249.226562 L 320.457031 247.664062 Z M 333.242188 258.835938 L 326.855469 258.835938 L 326.855469 254.046875 L 333.242188 254.046875 Z M 317.777344 281.824219 L 313.261719 277.308594 L 316.648438 273.921875 L 321.160156 278.4375 Z M 295.375 287.140625 L 290.585938 287.140625 L 290.585938 280.757812 L 295.375 280.757812 Z M 267.597656 271.675781 L 272.113281 267.160156 L 275.5 270.546875 L 270.984375 275.0625 Z M 262.277344 244.484375 L 268.664062 244.484375 L 268.664062 249.273438 L 262.277344 249.273438 Z M 277.746094 221.496094 L 282.261719 226.011719 L 278.875 229.398438 L 274.359375 224.882812 Z M 300.148438 216.179688 L 304.9375 216.179688 L 304.9375 222.566406 L 300.148438 222.566406 Z M 327.925781 231.644531 L 323.410156 236.160156 L 320.023438 232.773438 L 324.539062 228.257812 Z M 320.46875 242.871094 L 334.839844 242.875 L 334.835938 241.273438 L 320.550781 241.277344 L 330.183594 231.644531 L 320.023438 221.488281 L 309.855469 231.65625 L 307.601562 229.390625 L 317.765625 219.230469 L 316.632812 218.101562 L 306.535156 228.203125 L 306.535156 214.582031 L 292.167969 214.582031 L 292.167969 228.960938 L 288.972656 228.957031 L 288.976562 214.582031 L 287.375 214.585938 L 287.378906 228.871094 L 277.746094 219.238281 L 267.589844 229.398438 L 277.753906 239.566406 L 275.492188 241.820312 L 265.332031 231.65625 L 264.199219 232.789062 L 274.304688 242.886719 L 260.683594 242.886719 L 260.683594 257.253906 L 275.0625 257.253906 L 275.054688 260.449219 L 260.683594 260.445312 L 260.6875 262.046875 L 274.972656 262.042969 L 265.339844 271.675781 L 275.5 281.835938 L 285.664062 271.667969 L 287.921875 273.929688 L 277.753906 284.089844 L 278.890625 285.222656 L 288.988281 275.117188 L 288.988281 288.738281 L 303.355469 288.738281 L 303.355469 274.359375 L 306.550781 274.363281 L 306.546875 288.738281 L 308.148438 288.734375 L 308.144531 274.449219 L 317.777344 284.082031 L 327.933594 273.921875 L 317.769531 263.757812 L 320.03125 261.5 L 330.191406 271.664062 L 331.320312 270.53125 L 321.21875 260.433594 L 334.839844 260.433594 L 334.839844 246.066406 L 320.460938 246.066406 Z M 320.46875 242.871094"/>
<path fill-rule="nonzero" d="M 291.445312 237.046875 L 294.175781 237.046875 L 294.175781 263.328125 L 303.992188 263.328125 L 303.992188 263.832031 L 291.445312 263.832031 Z M 291.445312 237.046875"/>
</g>
</svg>